<mxfile host="Electron" agent="Mozilla/5.0 (Windows NT 10.0; Win64; x64) AppleWebKit/537.36 (KHTML, like Gecko) draw.io/24.7.17 Chrome/128.0.6613.36 Electron/32.0.1 Safari/537.36" version="24.7.17">
  <diagram name="Page-1" id="ikvIEtSnnO-6xkwY3rWI">
    <mxGraphModel dx="1036" dy="654" grid="1" gridSize="10" guides="1" tooltips="1" connect="1" arrows="1" fold="1" page="1" pageScale="1" pageWidth="827" pageHeight="1169" math="0" shadow="0">
      <root>
        <mxCell id="0" />
        <mxCell id="1" parent="0" />
        <mxCell id="Up-bq0SFBSnzB7ce86Mg-6" style="edgeStyle=orthogonalEdgeStyle;rounded=0;orthogonalLoop=1;jettySize=auto;html=1;exitX=1;exitY=0.5;exitDx=0;exitDy=0;entryX=0;entryY=0.5;entryDx=0;entryDy=0;" edge="1" parent="1" source="Up-bq0SFBSnzB7ce86Mg-1" target="Up-bq0SFBSnzB7ce86Mg-3">
          <mxGeometry relative="1" as="geometry" />
        </mxCell>
        <mxCell id="Up-bq0SFBSnzB7ce86Mg-7" value="protos, struct&lt;div&gt;et librairie&lt;/div&gt;" style="edgeLabel;html=1;align=center;verticalAlign=middle;resizable=0;points=[];" vertex="1" connectable="0" parent="Up-bq0SFBSnzB7ce86Mg-6">
          <mxGeometry x="-0.0647" relative="1" as="geometry">
            <mxPoint as="offset" />
          </mxGeometry>
        </mxCell>
        <mxCell id="Up-bq0SFBSnzB7ce86Mg-8" style="edgeStyle=orthogonalEdgeStyle;rounded=0;orthogonalLoop=1;jettySize=auto;html=1;entryX=0.5;entryY=0;entryDx=0;entryDy=0;" edge="1" parent="1" source="Up-bq0SFBSnzB7ce86Mg-1" target="Up-bq0SFBSnzB7ce86Mg-2">
          <mxGeometry relative="1" as="geometry" />
        </mxCell>
        <mxCell id="Up-bq0SFBSnzB7ce86Mg-9" value="appel des fonctions liés aux formats&lt;div&gt;via pointeurs sur fonctions&lt;/div&gt;" style="edgeLabel;html=1;align=center;verticalAlign=middle;resizable=0;points=[];" vertex="1" connectable="0" parent="Up-bq0SFBSnzB7ce86Mg-8">
          <mxGeometry x="0.0182" y="-2" relative="1" as="geometry">
            <mxPoint as="offset" />
          </mxGeometry>
        </mxCell>
        <mxCell id="Up-bq0SFBSnzB7ce86Mg-10" style="edgeStyle=orthogonalEdgeStyle;rounded=0;orthogonalLoop=1;jettySize=auto;html=1;entryX=1;entryY=0.5;entryDx=0;entryDy=0;" edge="1" parent="1" source="Up-bq0SFBSnzB7ce86Mg-1" target="Up-bq0SFBSnzB7ce86Mg-4">
          <mxGeometry relative="1" as="geometry" />
        </mxCell>
        <mxCell id="Up-bq0SFBSnzB7ce86Mg-11" value="utilise _putchar&lt;div&gt;permet d&#39;afficher&amp;nbsp;&lt;div&gt;les caractères&lt;/div&gt;&lt;/div&gt;" style="edgeLabel;html=1;align=center;verticalAlign=middle;resizable=0;points=[];" vertex="1" connectable="0" parent="Up-bq0SFBSnzB7ce86Mg-10">
          <mxGeometry x="0.0209" relative="1" as="geometry">
            <mxPoint as="offset" />
          </mxGeometry>
        </mxCell>
        <mxCell id="Up-bq0SFBSnzB7ce86Mg-1" value="_printf.c" style="ellipse;whiteSpace=wrap;html=1;" vertex="1" parent="1">
          <mxGeometry x="354" y="260" width="120" height="80" as="geometry" />
        </mxCell>
        <mxCell id="Up-bq0SFBSnzB7ce86Mg-12" style="edgeStyle=orthogonalEdgeStyle;rounded=0;orthogonalLoop=1;jettySize=auto;html=1;entryX=0.5;entryY=1;entryDx=0;entryDy=0;" edge="1" parent="1" source="Up-bq0SFBSnzB7ce86Mg-2" target="Up-bq0SFBSnzB7ce86Mg-3">
          <mxGeometry relative="1" as="geometry" />
        </mxCell>
        <mxCell id="Up-bq0SFBSnzB7ce86Mg-14" value="protos, struct&amp;nbsp;&lt;div&gt;et librairie&lt;/div&gt;" style="edgeLabel;html=1;align=center;verticalAlign=middle;resizable=0;points=[];" vertex="1" connectable="0" parent="Up-bq0SFBSnzB7ce86Mg-12">
          <mxGeometry x="-0.4012" relative="1" as="geometry">
            <mxPoint as="offset" />
          </mxGeometry>
        </mxCell>
        <mxCell id="Up-bq0SFBSnzB7ce86Mg-15" style="edgeStyle=orthogonalEdgeStyle;rounded=0;orthogonalLoop=1;jettySize=auto;html=1;entryX=0.5;entryY=1;entryDx=0;entryDy=0;" edge="1" parent="1" source="Up-bq0SFBSnzB7ce86Mg-2" target="Up-bq0SFBSnzB7ce86Mg-4">
          <mxGeometry relative="1" as="geometry" />
        </mxCell>
        <mxCell id="Up-bq0SFBSnzB7ce86Mg-16" value="utilise _putchar" style="edgeLabel;html=1;align=center;verticalAlign=middle;resizable=0;points=[];" vertex="1" connectable="0" parent="Up-bq0SFBSnzB7ce86Mg-15">
          <mxGeometry x="-0.4047" y="3" relative="1" as="geometry">
            <mxPoint as="offset" />
          </mxGeometry>
        </mxCell>
        <mxCell id="Up-bq0SFBSnzB7ce86Mg-2" value="print_func.c" style="ellipse;whiteSpace=wrap;html=1;" vertex="1" parent="1">
          <mxGeometry x="354" y="450" width="120" height="80" as="geometry" />
        </mxCell>
        <mxCell id="Up-bq0SFBSnzB7ce86Mg-3" value="main.h" style="ellipse;whiteSpace=wrap;html=1;" vertex="1" parent="1">
          <mxGeometry x="610" y="260" width="120" height="80" as="geometry" />
        </mxCell>
        <mxCell id="Up-bq0SFBSnzB7ce86Mg-4" value="_putchar.c" style="ellipse;whiteSpace=wrap;html=1;" vertex="1" parent="1">
          <mxGeometry x="100" y="260" width="120" height="80" as="geometry" />
        </mxCell>
      </root>
    </mxGraphModel>
  </diagram>
</mxfile>
